<svg width="25" height="24" viewBox="0 0 25 24" fill="none" xmlns="http://www.w3.org/2000/svg">
<mask id="mask0_139_628" style="mask-type:alpha" maskUnits="userSpaceOnUse" x="0" y="0" width="25" height="24">
<rect x="0.25" width="24" height="24" fill="#D9D9D9"/>
</mask>
<g mask="url(#mask0_139_628)">
<path d="M9.8 17.5749C9.66667 17.5749 9.54167 17.5539 9.425 17.5119C9.30833 17.4706 9.2 17.3999 9.1 17.2999L4.8 12.9999C4.61667 12.8166 4.529 12.5789 4.537 12.2869C4.54567 11.9956 4.64167 11.7582 4.825 11.5749C5.00833 11.3916 5.24167 11.2999 5.525 11.2999C5.80833 11.2999 6.04167 11.3916 6.225 11.5749L9.8 15.1499L18.275 6.6749C18.4583 6.49157 18.696 6.3999 18.988 6.3999C19.2793 6.3999 19.5167 6.49157 19.7 6.6749C19.8833 6.85824 19.975 7.09557 19.975 7.3869C19.975 7.6789 19.8833 7.91657 19.7 8.0999L10.5 17.2999C10.4 17.3999 10.2917 17.4706 10.175 17.5119C10.0583 17.5539 9.93333 17.5749 9.8 17.5749Z" fill="#37425C"/>
</g>
</svg>
