<svg width="25" height="24" viewBox="0 0 25 24" fill="none" xmlns="http://www.w3.org/2000/svg">
<mask id="mask0_140_1311" style="mask-type:alpha" maskUnits="userSpaceOnUse" x="0" y="0" width="25" height="24">
<rect x="0.75" width="24" height="24" fill="#D9D9D9"/>
</mask>
<g mask="url(#mask0_140_1311)">
<path d="M9.75 14.25C9.4 14.25 9.10433 14.129 8.863 13.887C8.621 13.6457 8.5 13.35 8.5 13C8.5 12.65 8.621 12.3543 8.863 12.113C9.10433 11.871 9.4 11.75 9.75 11.75C10.1 11.75 10.3957 11.871 10.637 12.113C10.879 12.3543 11 12.65 11 13C11 13.35 10.879 13.6457 10.637 13.887C10.3957 14.129 10.1 14.25 9.75 14.25ZM15.75 14.25C15.4 14.25 15.1043 14.129 14.863 13.887C14.621 13.6457 14.5 13.35 14.5 13C14.5 12.65 14.621 12.3543 14.863 12.113C15.1043 11.871 15.4 11.75 15.75 11.75C16.1 11.75 16.3957 11.871 16.637 12.113C16.879 12.3543 17 12.65 17 13C17 13.35 16.879 13.6457 16.637 13.887C16.3957 14.129 16.1 14.25 15.75 14.25ZM12.75 20C14.9833 20 16.875 19.225 18.425 17.675C19.975 16.125 20.75 14.2333 20.75 12C20.75 11.6 20.725 11.2123 20.675 10.837C20.625 10.4623 20.5333 10.1 20.4 9.75C20.05 9.83333 19.7 9.896 19.35 9.938C19 9.97933 18.6333 10 18.25 10C16.7333 10 15.3 9.675 13.95 9.025C12.6 8.375 11.45 7.46667 10.5 6.3C9.96667 7.6 9.20433 8.72933 8.213 9.688C7.221 10.646 6.06667 11.3667 4.75 11.85V12C4.75 14.2333 5.525 16.125 7.075 17.675C8.625 19.225 10.5167 20 12.75 20ZM12.75 22C11.3667 22 10.0667 21.7373 8.85 21.212C7.63333 20.6873 6.575 19.975 5.675 19.075C4.775 18.175 4.06267 17.1167 3.538 15.9C3.01267 14.6833 2.75 13.3833 2.75 12C2.75 10.6167 3.01267 9.31667 3.538 8.1C4.06267 6.88333 4.775 5.825 5.675 4.925C6.575 4.025 7.63333 3.31233 8.85 2.787C10.0667 2.26233 11.3667 2 12.75 2C14.1333 2 15.4333 2.26233 16.65 2.787C17.8667 3.31233 18.925 4.025 19.825 4.925C20.725 5.825 21.4373 6.88333 21.962 8.1C22.4873 9.31667 22.75 10.6167 22.75 12C22.75 13.3833 22.4873 14.6833 21.962 15.9C21.4373 17.1167 20.725 18.175 19.825 19.075C18.925 19.975 17.8667 20.6873 16.65 21.212C15.4333 21.7373 14.1333 22 12.75 22Z" fill="#37425C"/>
</g>
</svg>
