<svg width="25" height="24" viewBox="0 0 25 24" fill="none" xmlns="http://www.w3.org/2000/svg">
<mask id="mask0_139_625" style="mask-type:alpha" maskUnits="userSpaceOnUse" x="0" y="0" width="25" height="24">
<rect x="0.5" width="24" height="24" fill="#D9D9D9"/>
</mask>
<g mask="url(#mask0_139_625)">
<path d="M14.424 22H10.576C10.3195 22 10.0972 21.9167 9.90905 21.75C9.72093 21.5833 9.60976 21.375 9.57556 21.125L9.26772 18.8C9.0454 18.7167 8.83607 18.6167 8.63974 18.5C8.44272 18.3833 8.25015 18.2583 8.06203 18.125L5.83022 19.025C5.5908 19.1083 5.35137 19.1167 5.11194 19.05C4.87251 18.9833 4.68439 18.8417 4.54757 18.625L2.64925 15.4C2.51244 15.1833 2.46968 14.95 2.52099 14.7C2.57229 14.45 2.70056 14.25 2.90578 14.1L4.82976 12.675C4.81266 12.5583 4.8041 12.4457 4.8041 12.337C4.8041 12.229 4.8041 12.1167 4.8041 12C4.8041 11.8833 4.8041 11.7707 4.8041 11.662C4.8041 11.554 4.81266 11.4417 4.82976 11.325L2.90578 9.9C2.70056 9.75 2.57229 9.55 2.52099 9.3C2.46968 9.05 2.51244 8.81667 2.64925 8.6L4.54757 5.375C4.66729 5.14167 4.85096 4.99567 5.0986 4.937C5.34692 4.879 5.5908 4.89167 5.83022 4.975L8.06203 5.875C8.25015 5.74167 8.44683 5.61667 8.65205 5.5C8.85728 5.38333 9.0625 5.28333 9.26772 5.2L9.57556 2.875C9.60976 2.625 9.72093 2.41667 9.90905 2.25C10.0972 2.08333 10.3195 2 10.576 2H14.424C14.6805 2 14.9028 2.08333 15.091 2.25C15.2791 2.41667 15.3902 2.625 15.4244 2.875L15.7323 5.2C15.9546 5.28333 16.1643 5.38333 16.3613 5.5C16.5576 5.61667 16.7498 5.74167 16.938 5.875L19.1698 4.975C19.4092 4.89167 19.6486 4.88333 19.8881 4.95C20.1275 5.01667 20.3156 5.15833 20.4524 5.375L22.3507 8.6C22.4876 8.81667 22.5303 9.05 22.479 9.3C22.4277 9.55 22.2994 9.75 22.0942 9.9L20.1702 11.325C20.1873 11.4417 20.1959 11.554 20.1959 11.662C20.1959 11.7707 20.1959 11.8833 20.1959 12C20.1959 12.1167 20.1959 12.229 20.1959 12.337C20.1959 12.4457 20.1788 12.5583 20.1446 12.675L22.0686 14.1C22.2738 14.25 22.4021 14.45 22.4534 14.7C22.5047 14.95 22.4619 15.1833 22.3251 15.4L20.4268 18.6C20.29 18.8167 20.0977 18.9627 19.8501 19.038C19.6018 19.1127 19.3579 19.1083 19.1185 19.025L16.938 18.125C16.7498 18.2583 16.5532 18.3833 16.3479 18.5C16.1427 18.6167 15.9375 18.7167 15.7323 18.8L15.4244 21.125C15.3902 21.375 15.2791 21.5833 15.091 21.75C14.9028 21.9167 14.6805 22 14.424 22ZM12.5513 15.5C13.5432 15.5 14.3898 15.1583 15.091 14.475C15.7921 13.7917 16.1427 12.9667 16.1427 12C16.1427 11.0333 15.7921 10.2083 15.091 9.525C14.3898 8.84167 13.5432 8.5 12.5513 8.5C11.5423 8.5 10.6913 8.84167 9.99832 9.525C9.30603 10.2083 8.95989 11.0333 8.95989 12C8.95989 12.9667 9.30603 13.7917 9.99832 14.475C10.6913 15.1583 11.5423 15.5 12.5513 15.5Z" fill="#37425C"/>
</g>
</svg>
