<svg width="25" height="24" viewBox="0 0 25 24" fill="none" xmlns="http://www.w3.org/2000/svg">
<mask id="mask0_139_618" style="mask-type:alpha" maskUnits="userSpaceOnUse" x="0" y="0" width="25" height="24">
<rect x="0.5" width="24" height="24" fill="#D9D9D9"/>
</mask>
<g mask="url(#mask0_139_618)">
<path d="M6.5 11C5.95 11 5.47933 10.804 5.088 10.412C4.696 10.0207 4.5 9.55 4.5 9V4C4.5 3.45 4.696 2.979 5.088 2.587C5.47933 2.19567 5.95 2 6.5 2H18.5C19.05 2 19.521 2.19567 19.913 2.587C20.3043 2.979 20.5 3.45 20.5 4V9C20.5 9.55 20.3043 10.0207 19.913 10.412C19.521 10.804 19.05 11 18.5 11H6.5ZM6.5 22C5.95 22 5.47933 21.8043 5.088 21.413C4.696 21.021 4.5 20.55 4.5 20V15C4.5 14.45 4.696 13.979 5.088 13.587C5.47933 13.1957 5.95 13 6.5 13H18.5C19.05 13 19.521 13.1957 19.913 13.587C20.3043 13.979 20.5 14.45 20.5 15V20C20.5 20.55 20.3043 21.021 19.913 21.413C19.521 21.8043 19.05 22 18.5 22H6.5Z" fill="#37425C"/>
</g>
</svg>
