<svg width="25" height="24" viewBox="0 0 25 24" fill="none" xmlns="http://www.w3.org/2000/svg">
<mask id="mask0_139_615" style="mask-type:alpha" maskUnits="userSpaceOnUse" x="0" y="0" width="25" height="24">
<rect x="0.25" width="24" height="24" fill="#D9D9D9"/>
</mask>
<g mask="url(#mask0_139_615)">
<path d="M9.25 16.5C8.55 16.5 7.95833 16.2583 7.475 15.775C6.99167 15.2917 6.75 14.7 6.75 14C6.75 13.3 6.99167 12.7083 7.475 12.225C7.95833 11.7417 8.55 11.5 9.25 11.5C9.95 11.5 10.5417 11.7417 11.025 12.225C11.5083 12.7083 11.75 13.3 11.75 14C11.75 14.7 11.5083 15.2917 11.025 15.775C10.5417 16.2583 9.95 16.5 9.25 16.5ZM5.25 22C4.7 22 4.229 21.8043 3.837 21.413C3.44567 21.021 3.25 20.55 3.25 20V6C3.25 5.45 3.44567 4.97933 3.837 4.588C4.229 4.196 4.7 4 5.25 4H6.25V3C6.25 2.71667 6.34567 2.479 6.537 2.287C6.729 2.09567 6.96667 2 7.25 2C7.53333 2 7.771 2.09567 7.963 2.287C8.15433 2.479 8.25 2.71667 8.25 3V4H16.25V3C16.25 2.71667 16.346 2.479 16.538 2.287C16.7293 2.09567 16.9667 2 17.25 2C17.5333 2 17.7707 2.09567 17.962 2.287C18.154 2.479 18.25 2.71667 18.25 3V4H19.25C19.8 4 20.271 4.196 20.663 4.588C21.0543 4.97933 21.25 5.45 21.25 6V20C21.25 20.55 21.0543 21.021 20.663 21.413C20.271 21.8043 19.8 22 19.25 22H5.25ZM5.25 20H19.25V10H5.25V20Z" fill="#37425C"/>
</g>
</svg>
